<?xml version="1.0" encoding="utf-8"?>
<!-- Generator: Adobe Illustrator 27.5.0, SVG Export Plug-In . SVG Version: 6.00 Build 0)  -->
<svg version="1.1" xmlns="http://www.w3.org/2000/svg" xmlns:xlink="http://www.w3.org/1999/xlink" x="0px" y="0px"
	 viewBox="0 0 500 500" style="enable-background:new 0 0 500 500;" xml:space="preserve">
<g id="Floor">
	<path id="Floor_3_" style="fill:#F5F5F5;" d="M85.476,451.181C-5.391,398.72-5.392,313.664,85.474,261.203
		c90.865-52.46,238.187-52.46,329.052,0c90.865,52.46,90.866,137.517,0.002,189.978C323.663,503.643,176.342,503.643,85.476,451.181
		z"/>
</g>
<g id="Shadows">
	<path id="Shadow_35_" style="fill:#E6E6E6;" d="M354.082,317.587c-24.311,14.036-24.311,36.794,0.001,50.832
		c24.313,14.036,63.731,14.036,88.042,0c24.313-14.037,24.313-36.795-0.001-50.832C417.813,303.55,378.394,303.55,354.082,317.587z"
		/>
	<path id="Shadow_42_" style="fill:#E0E0E0;" d="M324.086,455.938c-0.402-0.235-0.811-0.448-1.222-0.637
		c-1.487-0.683-2.876-0.905-4.321-1.796c-1.672-1.031-3.314-2.118-4.807-3.398c-4.321-3.704-9.7-6.53-14.17-10.029
		c-5.143-4.026-10.865-7.362-15.445-12.016c-5.095-5.178-8.52-11.722-12.588-17.741c-3.591-5.313-7.992-10.44-13.693-13.213
		l4.954-2.86l57.555-33.172c2.018-1.165,2.018-3.054,0-4.219L173.41,272.021c-2.018-1.165-5.29-1.165-7.308,0L42.016,343.664
		c-2.018,1.165-2.018,3.054,0,4.219l146.937,84.835c2.018,1.165,5.29,1.165,7.308,0l10.11-5.837l14.508-8.434
		c0,0,0.607,6.815,3.88,11.495c2.861,4.091,11.188,9.941,15.762,11.944c4.283,1.875,8.507,3.951,12.531,6.334
		c4.346,2.573,8.886,4.864,13.237,7.487c2.215,1.336,4.404,2.811,6.016,4.834c0.914,1.147,1.62,2.444,2.434,3.664
		c3.364,5.045,8.549,8.703,14.183,10.945c5.634,2.243,11.701,3.617,17.756,3.952c7.881,0.436,16.35,0.09,22.113-6.198
		c2.165-2.361,2.28-7.528,1.177-10.394C328.925,459.8,326.643,457.43,324.086,455.938z"/>
</g>
<g id="Pictures">
	<g id="Pictures_2_">
		<g id="Picture_17_">
			<g id="Frame_18_">
				<polygon id="XMLID_3577_" style="fill:#FAFAFA;" points="39.273,145.775 41.236,146.945 81.521,123.687 79.559,122.516 				"/>
				<g id="XMLID_3572_">
					<g id="XMLID_3573_">
						<g id="XMLID_3574_">
							<polygon id="XMLID_3575_" style="fill:#FFFFFF;" points="79.559,122.516 41.237,144.636 41.237,104.505 79.56,82.399 							
								"/>
						</g>
					</g>
				</g>
				<path id="XMLID_3559_" style="fill:#F0F0F0;" d="M85.227,74.83l-47.696,27.537l0,50.994l47.695-27.537L85.227,74.83z
					 M81.521,123.687l-40.285,23.259l0.001-42.44l40.284-23.259L81.521,123.687z"/>
				<polygon id="XMLID_3558_" style="fill:#E0E0E0;" points="81.521,123.687 79.559,122.516 79.56,82.399 81.522,81.247 				"/>
				<polygon id="XMLID_3556_" style="fill:#FAFAFA;" points="85.227,74.83 83.234,73.689 35.539,101.226 37.532,102.367 				"/>
				<polygon id="XMLID_3555_" style="fill:#E0E0E0;" points="35.539,101.226 37.532,102.367 37.532,153.361 35.539,152.22 				"/>
			</g>
			<g id="Land_17_">
				<polygon style="fill:#F0F0F0;" points="78.063,121.316 42.733,141.714 42.733,131.515 51.567,111.117 57.069,116.217 
					55.09,124.766 67.289,98.676 78.063,111.118 				"/>
				<path style="fill:#F0F0F0;" d="M56.736,101.268c-1.443,0.833-2.613,2.86-2.613,4.526c0,1.666,1.17,2.342,2.613,1.509
					c1.443-0.833,2.613-2.86,2.613-4.526C59.349,101.11,58.179,100.435,56.736,101.268z"/>
			</g>
		</g>
		<g id="Picture_16_">
			<g id="Frame_17_">
				<polygon id="XMLID_3552_" style="fill:#FAFAFA;" points="107.634,93.969 109.598,95.139 149.883,71.881 147.92,70.709 				"/>
				<g id="XMLID_3523_">
					<g id="XMLID_3542_">
						<g id="XMLID_3548_">
							<polygon id="XMLID_3551_" style="fill:#FFFFFF;" points="147.92,70.709 109.598,92.83 109.599,52.699 147.921,30.593 							
								"/>
						</g>
					</g>
				</g>
				<path id="XMLID_3497_" style="fill:#F0F0F0;" d="M153.589,23.024l-47.695,27.537l0,50.994l47.695-27.537L153.589,23.024z
					 M149.883,71.881l-40.285,23.259l0.001-42.44l40.285-23.259L149.883,71.881z"/>
				<polygon id="XMLID_3493_" style="fill:#E0E0E0;" points="149.883,71.881 147.92,70.709 147.921,30.593 149.883,29.441 				"/>
				<polygon id="XMLID_3489_" style="fill:#FAFAFA;" points="153.589,23.024 151.595,21.883 103.9,49.42 105.893,50.561 				"/>
				<polygon id="XMLID_3488_" style="fill:#E0E0E0;" points="103.9,49.42 105.893,50.561 105.894,101.555 103.9,100.414 				"/>
			</g>
			<g id="Land_16_">
				<polygon style="fill:#F0F0F0;" points="146.424,69.51 111.095,89.908 111.095,79.709 119.928,59.311 125.43,64.41 
					123.451,72.96 135.65,46.87 146.424,59.311 				"/>
				<path style="fill:#F0F0F0;" d="M125.098,49.462c-1.443,0.833-2.613,2.86-2.613,4.526c0,1.666,1.17,2.342,2.613,1.509
					c1.443-0.833,2.613-2.86,2.613-4.526S126.541,48.629,125.098,49.462z"/>
			</g>
		</g>
	</g>
</g>
<g id="Window">
	<g id="Window_2_">
		<polygon id="XMLID_3458_" style="fill:#FAFAFA;" points="461.511,191.787 458.366,193.662 340.792,125.465 343.935,123.589 		"/>
		<g id="XMLID_1311_">
			<g id="XMLID_3234_">
				<g id="XMLID_3235_">
					<polygon id="XMLID_3236_" style="fill:#FFFFFF;" points="343.935,123.589 458.365,189.963 458.365,102.184 343.935,35.832 
											"/>
				</g>
			</g>
		</g>
		<polygon id="XMLID_1310_" style="fill:#F0F0F0;" points="401.064,65.637 401.064,157.112 395.129,153.688 395.129,62.212 		"/>
		<polygon id="XMLID_1309_" style="fill:#E0E0E0;" points="404.029,63.917 401.064,65.637 401.064,157.112 404.029,155.392 		"/>
		<path id="XMLID_1178_" style="fill:#F0F0F0;" d="M334.857,128.888l129.442,75.049L464.3,98.759L334.858,23.711L334.857,128.888z
			 M340.792,33.987l117.573,68.197l0.001,91.478l-117.574-68.197V33.987z"/>
		<polygon id="XMLID_1177_" style="fill:#E0E0E0;" points="340.792,125.465 343.935,123.589 343.935,35.832 340.792,33.987 		"/>
		<polygon id="XMLID_1162_" style="fill:#FAFAFA;" points="334.858,23.711 338.05,21.883 467.492,96.932 464.3,98.759 		"/>
		<polygon id="XMLID_803_" style="fill:#E0E0E0;" points="467.492,96.932 464.3,98.759 464.299,203.937 467.491,202.109 		"/>
		<polygon id="XMLID_796_" style="fill:#E0E0E0;" points="401.063,69.054 395.145,65.637 395.145,69.063 401.064,72.48 		"/>
		<polygon id="XMLID_411_" style="opacity:0.15;" points="401.064,72.48 404.029,70.766 401.063,69.054 		"/>
	</g>
</g>
<g id="Plants">
	<g id="Plants_1_">
		<g id="XMLID_3521_">
			<g id="XMLID_3541_">
				<path style="fill:#E0E0E0;" d="M68.922,328.127l-8.88,5.13l-3.76,2.17c-0.31-3.09-1.17-11.12-2.31-19.84
					c-1.61-12.21-3.59-20.82-7.89-29.12c-3.89-7.53-9.67-14.8-18.81-24.29c-13.54-14.07-8.94-27.6,2.63-28.47
					c18.88-1.43,30.72,16.53,36.79,36.68C72.011,288.027,71.331,314.107,68.922,328.127z"/>
			</g>
			<g>
				<path style="fill:#FFFFFF;" d="M63.333,330.944c-0.026,0-0.054-0.001-0.081-0.004c-0.412-0.045-0.71-0.414-0.666-0.826
					c4.572-42.631-11.314-74.626-29.084-87.424c-0.336-0.242-0.412-0.711-0.17-1.047c0.242-0.334,0.709-0.413,1.047-0.17
					c18.123,13.051,34.335,45.57,29.699,88.801C64.036,330.658,63.711,330.944,63.333,330.944z"/>
			</g>
		</g>
		<g id="XMLID_3480_">
			<g id="XMLID_3498_">
				<path style="fill:#EBEBEB;" d="M60.041,333.257l-3.76,2.17l-4.38,2.53c-1.03-8.02-4.19-19.89-13.53-29.11
					c-10.68-10.53-24.32-16.22-26.72-25.46c-2.28-8.77,5.674-15.116,18.701-10.543c5.819,2.042,11.432,6.103,15.882,11.683
					C55.555,296.187,61.411,315.057,60.041,333.257z"/>
			</g>
			<g>
				<path style="fill:#FFFFFF;" d="M56.239,335.695c-0.003,0-0.006,0-0.008,0c-0.415-0.005-0.747-0.344-0.742-0.758
					c0.299-27.227-15.684-47.26-31.654-55.035c-0.373-0.182-0.527-0.631-0.347-1.003c0.181-0.371,0.63-0.527,1.003-0.347
					c16.396,7.983,32.804,28.519,32.498,56.4C56.984,335.365,56.649,335.695,56.239,335.695z"/>
			</g>
		</g>
	</g>
</g>
<g id="Table">
	<g id="Table_4_">
		<g id="Table_5_">
			<g>
				<path style="fill:#455A64;" d="M353.657,301.74c-0.001-0.471,0.31-0.942,0.932-1.301c1.243-0.718,3.26-0.718,4.504,0
					c0.622,0.359,0.933,0.83,0.933,1.3l-11.336,39.582h-0.004c-0.009,0.325-0.226,0.649-0.656,0.897
					c-0.879,0.508-2.305,0.508-3.184,0c-0.43-0.248-0.646-0.572-0.656-0.897h-0.003L353.657,301.74z"/>
				<path style="fill:#455A64;" d="M441.098,301.74c0-0.471-0.31-0.942-0.932-1.301c-1.244-0.718-3.26-0.718-4.504,0
					c-0.622,0.359-0.933,0.83-0.932,1.3l11.336,39.582h0.004c0.01,0.325,0.226,0.649,0.656,0.897c0.879,0.508,2.305,0.508,3.184,0
					c0.43-0.248,0.646-0.572,0.656-0.897h0.003L441.098,301.74z"/>
				<path style="fill:#455A64;" d="M400.95,306.812c0.001-0.471-0.31-0.942-0.932-1.302c-1.244-0.718-3.26-0.718-4.504,0
					c-0.622,0.359-0.933,0.83-0.932,1.3l0.933,52.276h0.004c0.009,0.325,0.226,0.649,0.656,0.897c0.879,0.508,2.305,0.508,3.184,0
					c0.43-0.248,0.646-0.572,0.656-0.897h0.003L400.95,306.812z"/>
			</g>
			<g>
				<path style="fill:#BA68C8;" d="M454.838,279.69h-0.053c0.008-8.433-5.518-16.865-16.665-23.299
					c-22.286-12.868-58.424-12.868-80.711,0c-11.145,6.434-16.672,14.866-16.663,23.299h-0.053v4.528l0,0
					c0.134,8.323,5.717,16.62,16.716,22.971c22.289,12.867,58.426,12.867,80.712,0c11.001-6.351,16.584-14.648,16.716-22.971l0,0
					V279.69z"/>
				<path style="opacity:0.3;fill:#FFFFFF;" d="M454.838,279.69h-0.053c0.008-8.433-5.518-16.865-16.665-23.299
					c-22.286-12.868-58.424-12.868-80.711,0c-11.145,6.434-16.672,14.866-16.663,23.299h-0.053v4.528l0,0
					c0.134,8.323,5.717,16.62,16.716,22.971c22.289,12.867,58.426,12.867,80.712,0c11.001-6.351,16.584-14.648,16.716-22.971l0,0
					V279.69z"/>
				<path id="XMLID_2872_" style="fill:#BA68C8;" d="M357.409,256.391c-22.288,12.867-22.288,33.73,0.001,46.599
					c22.288,12.868,58.425,12.868,80.712,0c22.288-12.868,22.288-33.731-0.001-46.599
					C415.833,243.523,379.697,243.523,357.409,256.391z"/>
				<path id="XMLID_3578_" style="opacity:0.6;fill:#FFFFFF;" d="M357.409,256.391c-22.288,12.867-22.288,33.73,0.001,46.599
					c22.288,12.868,58.425,12.868,80.712,0c22.288-12.868,22.288-33.731-0.001-46.599
					C415.833,243.523,379.697,243.523,357.409,256.391z"/>
			</g>
		</g>
		<g id="Book_3_">
			<path style="opacity:0.15;" d="M362.249,280.091l40.147,23.179c2.16,1.247,5.662,1.247,7.822,0l26.442-15.266
				c2.16-1.247,2.16-3.269,0-4.516l-40.147-23.179c-2.16-1.247-5.662-1.247-7.822,0l-26.442,15.266
				C360.089,276.822,360.089,278.844,362.249,280.091z"/>
			<g id="XMLID_2866_">
				<polygon id="XMLID_2871_" points="434.986,284.144 406.036,300.648 365.185,277.219 394.132,260.713 				"/>
				<path id="XMLID_2870_" style="fill:#F5F5F5;" d="M405.706,299.393l27.926-16.026c-0.729-2.07-0.675-4.486,0.151-7.242
					l-27.747,15.856C406.035,291.981,405.505,293.73,405.706,299.393z"/>
				<path id="XMLID_2869_" style="fill:#263238;" d="M407.46,289.719c-1.482,0.85-2.683,2.919-2.683,4.62v5.397
					c0,1.701,1.201,2.39,2.683,1.54l27.522-15.794l0.003-1.337l-27.155,15.485c-0.889,0.51-1.609,0.097-1.608-0.924l0.025-5.001
					c0.001-1.021,0.722-2.262,1.612-2.772l27.122-15.492v-1.515L407.46,289.719z"/>
				<path id="XMLID_2868_" style="fill:#455A64;" d="M434.982,273.927l-40.851-23.43l-27.52,15.793
					c-1.481,0.85-2.683,2.92-2.683,4.619l-0.001,5.398c0.001,0.847,0.299,1.444,0.787,1.725l40.852,23.43
					c-0.488-0.28-0.785-0.877-0.787-1.725l-0.004-5.401c0-1.7,1.202-3.77,2.683-4.619L434.982,273.927z"/>
				<path id="XMLID_2867_" style="fill:#37474F;" d="M405.561,291.709c-0.486,0.836-0.786,1.779-0.786,2.628l0.004,5.401
					c0.002,0.847,0.299,1.445,0.787,1.725l-40.852-23.43c-0.488-0.28-0.785-0.878-0.787-1.725l0.001-5.398
					c0-0.85,0.301-1.792,0.786-2.628L405.561,291.709z"/>
			</g>
		</g>
	</g>
</g>
<g id="Question_Marks_1_">
	<g id="Question_Marks">
		<g>
			<path style="fill:#BA68C8;" d="M251.031,57.49c1.613,0.745,3.078,1.695,4.398,2.846c1.319,1.151,2.37,2.438,3.148,3.86
				c0.779,1.421,1.232,2.941,1.356,4.562c0.125,1.618-0.201,3.269-0.978,4.949c-0.634,1.372-1.4,2.465-2.296,3.278
				c-0.898,0.813-1.866,1.468-2.907,1.965c-1.041,0.497-2.112,0.897-3.209,1.201c-1.099,0.304-2.139,0.594-3.118,0.868
				c-0.982,0.275-1.889,0.617-2.721,1.022c-0.834,0.406-1.475,0.963-1.927,1.67c-0.244,0.345-0.548,0.599-0.915,0.762
				c-0.368,0.164-0.74,0.158-1.116-0.016l-3.91-1.809c-0.378-0.174-0.649-0.465-0.813-0.875c-0.165-0.409-0.143-0.793,0.066-1.155
				c0.687-1.306,1.512-2.35,2.478-3.132c0.965-0.781,1.985-1.413,3.061-1.894c1.076-0.481,2.168-0.86,3.275-1.139
				c1.107-0.28,2.142-0.56,3.107-0.844c0.962-0.282,1.806-0.622,2.529-1.015c0.724-0.393,1.252-0.951,1.585-1.672
				c0.602-1.303,0.55-2.628-0.159-3.977c-0.709-1.347-1.973-2.442-3.79-3.283c-2.915-1.348-5.733-0.881-8.452,1.4
				c-0.346,0.298-0.657,0.497-0.931,0.599c-0.277,0.102-0.639,0.049-1.084-0.158l-4.166-1.927c-0.308-0.143-0.527-0.369-0.654-0.678
				c-0.128-0.309-0.112-0.635,0.046-0.978c0.588-1.185,1.525-2.239,2.807-3.166c1.281-0.927,2.749-1.622,4.399-2.087
				c1.652-0.463,3.426-0.654,5.321-0.568C247.357,56.187,249.213,56.65,251.031,57.49z M239.577,87.663
				c0.377,0.174,0.639,0.462,0.785,0.863c0.148,0.401,0.135,0.79-0.04,1.168l-2.093,4.526c-0.175,0.379-0.463,0.641-0.863,0.787
				c-0.402,0.148-0.79,0.135-1.167-0.04l-4.424-2.045c-0.378-0.176-0.641-0.463-0.788-0.864c-0.148-0.402-0.135-0.789,0.04-1.168
				l2.094-4.528c0.175-0.376,0.462-0.639,0.863-0.787c0.402-0.146,0.79-0.134,1.168,0.041L239.577,87.663z"/>
		</g>
		<g>
			<g>
				<path style="fill:#BA68C8;" d="M249.396,111.007c1.157,0.405,2.228,0.958,3.212,1.662c0.983,0.703,1.791,1.516,2.422,2.441
					c0.629,0.926,1.042,1.94,1.235,3.044c0.195,1.105,0.08,2.261-0.341,3.466c-0.345,0.985-0.799,1.788-1.36,2.406
					c-0.562,0.619-1.184,1.134-1.867,1.545c-0.682,0.41-1.391,0.757-2.125,1.039c-0.734,0.282-1.429,0.55-2.084,0.804
					c-0.656,0.254-1.257,0.55-1.801,0.884c-0.545,0.333-0.949,0.759-1.212,1.274c-0.145,0.254-0.338,0.448-0.578,0.586
					c-0.242,0.136-0.498,0.157-0.768,0.063l-2.807-0.981c-0.272-0.095-0.477-0.277-0.618-0.548c-0.14-0.27-0.151-0.536-0.032-0.798
					c0.385-0.943,0.883-1.715,1.495-2.317c0.61-0.602,1.269-1.104,1.977-1.506c0.706-0.402,1.432-0.736,2.174-1.001
					c0.742-0.265,1.434-0.528,2.079-0.787c0.642-0.257,1.199-0.547,1.67-0.865c0.471-0.32,0.797-0.737,0.979-1.255
					c0.326-0.934,0.201-1.842-0.376-2.722c-0.577-0.879-1.518-1.546-2.823-2.003c-2.093-0.732-3.998-0.223-5.715,1.526
					c-0.217,0.227-0.417,0.385-0.601,0.473c-0.183,0.089-0.434,0.077-0.754-0.035l-2.991-1.045
					c-0.222-0.078-0.387-0.218-0.496-0.422c-0.108-0.205-0.119-0.429-0.033-0.675c0.325-0.852,0.898-1.64,1.718-2.362
					c0.818-0.723,1.78-1.299,2.883-1.728c1.104-0.43,2.31-0.677,3.618-0.745C246.785,110.356,248.091,110.551,249.396,111.007z
					 M243.539,132.501c0.27,0.095,0.47,0.275,0.599,0.541c0.127,0.267,0.144,0.535,0.05,0.805l-1.137,3.251
					c-0.094,0.271-0.275,0.47-0.541,0.598c-0.266,0.129-0.534,0.144-0.805,0.05l-3.176-1.111c-0.271-0.094-0.471-0.274-0.599-0.54
					c-0.129-0.266-0.145-0.534-0.051-0.805l1.137-3.251c0.095-0.27,0.274-0.47,0.541-0.598c0.266-0.128,0.534-0.145,0.805-0.051
					L243.539,132.501z"/>
			</g>
			<g style="opacity:0.2;">
				<path d="M249.396,111.007c1.157,0.405,2.228,0.958,3.212,1.662c0.983,0.703,1.791,1.516,2.422,2.441
					c0.629,0.926,1.042,1.94,1.235,3.044c0.195,1.105,0.08,2.261-0.341,3.466c-0.345,0.985-0.799,1.788-1.36,2.406
					c-0.562,0.619-1.184,1.134-1.867,1.545c-0.682,0.41-1.391,0.757-2.125,1.039c-0.734,0.282-1.429,0.55-2.084,0.804
					c-0.656,0.254-1.257,0.55-1.801,0.884c-0.545,0.333-0.949,0.759-1.212,1.274c-0.145,0.254-0.338,0.448-0.578,0.586
					c-0.242,0.136-0.498,0.157-0.768,0.063l-2.807-0.981c-0.272-0.095-0.477-0.277-0.618-0.548c-0.14-0.27-0.151-0.536-0.032-0.798
					c0.385-0.943,0.883-1.715,1.495-2.317c0.61-0.602,1.269-1.104,1.977-1.506c0.706-0.402,1.432-0.736,2.174-1.001
					c0.742-0.265,1.434-0.528,2.079-0.787c0.642-0.257,1.199-0.547,1.67-0.865c0.471-0.32,0.797-0.737,0.979-1.255
					c0.326-0.934,0.201-1.842-0.376-2.722c-0.577-0.879-1.518-1.546-2.823-2.003c-2.093-0.732-3.998-0.223-5.715,1.526
					c-0.217,0.227-0.417,0.385-0.601,0.473c-0.183,0.089-0.434,0.077-0.754-0.035l-2.991-1.045
					c-0.222-0.078-0.387-0.218-0.496-0.422c-0.108-0.205-0.119-0.429-0.033-0.675c0.325-0.852,0.898-1.64,1.718-2.362
					c0.818-0.723,1.78-1.299,2.883-1.728c1.104-0.43,2.31-0.677,3.618-0.745C246.785,110.356,248.091,110.551,249.396,111.007z
					 M243.539,132.501c0.27,0.095,0.47,0.275,0.599,0.541c0.127,0.267,0.144,0.535,0.05,0.805l-1.137,3.251
					c-0.094,0.271-0.275,0.47-0.541,0.598c-0.266,0.129-0.534,0.144-0.805,0.05l-3.176-1.111c-0.271-0.094-0.471-0.274-0.599-0.54
					c-0.129-0.266-0.145-0.534-0.051-0.805l1.137-3.251c0.095-0.27,0.274-0.47,0.541-0.598c0.266-0.128,0.534-0.145,0.805-0.051
					L243.539,132.501z"/>
			</g>
		</g>
		<g>
			<g>
				<path style="fill:#BA68C8;" d="M286.278,114.993c0.339,0.026,0.622,0.172,0.851,0.437c0.227,0.266,0.328,0.568,0.303,0.907
					l-0.31,4.067c-0.026,0.34-0.171,0.623-0.437,0.85c-0.265,0.229-0.568,0.329-0.906,0.304l-3.975-0.303
					c-0.34-0.026-0.622-0.171-0.85-0.436c-0.229-0.266-0.329-0.568-0.303-0.907l0.31-4.068c0.026-0.339,0.17-0.621,0.437-0.85
					c0.265-0.227,0.566-0.328,0.906-0.302L286.278,114.993z M286.432,88.596c1.447,0.11,2.842,0.418,4.183,0.923
					c1.341,0.506,2.514,1.191,3.516,2.058c1.004,0.867,1.784,1.903,2.344,3.108c0.56,1.206,0.782,2.563,0.666,4.073
					c-0.094,1.233-0.368,2.289-0.822,3.168c-0.454,0.88-1.01,1.66-1.666,2.337c-0.657,0.679-1.362,1.292-2.115,1.839
					c-0.757,0.547-1.47,1.066-2.143,1.557c-0.673,0.491-1.271,1.012-1.792,1.561c-0.523,0.549-0.856,1.16-1,1.83
					c-0.088,0.335-0.249,0.616-0.484,0.846c-0.234,0.23-0.521,0.332-0.86,0.306l-3.514-0.268c-0.339-0.026-0.63-0.171-0.873-0.438
					c-0.243-0.267-0.337-0.567-0.28-0.905c0.154-1.198,0.488-2.233,1.005-3.109c0.517-0.874,1.117-1.65,1.805-2.327
					c0.686-0.675,1.414-1.279,2.184-1.809c0.768-0.53,1.481-1.042,2.139-1.534c0.657-0.492,1.206-0.992,1.649-1.502
					c0.44-0.508,0.687-1.087,0.736-1.734c0.089-1.171-0.331-2.171-1.259-3.001c-0.928-0.83-2.209-1.308-3.841-1.432
					c-2.621-0.199-4.647,0.964-6.079,3.489c-0.18,0.328-0.361,0.57-0.542,0.726c-0.184,0.157-0.474,0.219-0.874,0.189l-3.745-0.286
					c-0.277-0.021-0.509-0.131-0.695-0.331c-0.187-0.201-0.267-0.454-0.244-0.762c0.112-1.076,0.527-2.153,1.245-3.23
					c0.718-1.077,1.642-2.029,2.776-2.857c1.132-0.827,2.436-1.48,3.914-1.956C283.241,88.647,284.797,88.472,286.432,88.596z"/>
			</g>
			<g style="opacity:0.3;">
				<path style="fill:#FFFFFF;" d="M286.278,114.993c0.339,0.026,0.622,0.172,0.851,0.437c0.227,0.266,0.328,0.568,0.303,0.907
					l-0.31,4.067c-0.026,0.34-0.171,0.623-0.437,0.85c-0.265,0.229-0.568,0.329-0.906,0.304l-3.975-0.303
					c-0.34-0.026-0.622-0.171-0.85-0.436c-0.229-0.266-0.329-0.568-0.303-0.907l0.31-4.068c0.026-0.339,0.17-0.621,0.437-0.85
					c0.265-0.227,0.566-0.328,0.906-0.302L286.278,114.993z M286.432,88.596c1.447,0.11,2.842,0.418,4.183,0.923
					c1.341,0.506,2.514,1.191,3.516,2.058c1.004,0.867,1.784,1.903,2.344,3.108c0.56,1.206,0.782,2.563,0.666,4.073
					c-0.094,1.233-0.368,2.289-0.822,3.168c-0.454,0.88-1.01,1.66-1.666,2.337c-0.657,0.679-1.362,1.292-2.115,1.839
					c-0.757,0.547-1.47,1.066-2.143,1.557c-0.673,0.491-1.271,1.012-1.792,1.561c-0.523,0.549-0.856,1.16-1,1.83
					c-0.088,0.335-0.249,0.616-0.484,0.846c-0.234,0.23-0.521,0.332-0.86,0.306l-3.514-0.268c-0.339-0.026-0.63-0.171-0.873-0.438
					c-0.243-0.267-0.337-0.567-0.28-0.905c0.154-1.198,0.488-2.233,1.005-3.109c0.517-0.874,1.117-1.65,1.805-2.327
					c0.686-0.675,1.414-1.279,2.184-1.809c0.768-0.53,1.481-1.042,2.139-1.534c0.657-0.492,1.206-0.992,1.649-1.502
					c0.44-0.508,0.687-1.087,0.736-1.734c0.089-1.171-0.331-2.171-1.259-3.001c-0.928-0.83-2.209-1.308-3.841-1.432
					c-2.621-0.199-4.647,0.964-6.079,3.489c-0.18,0.328-0.361,0.57-0.542,0.726c-0.184,0.157-0.474,0.219-0.874,0.189l-3.745-0.286
					c-0.277-0.021-0.509-0.131-0.695-0.331c-0.187-0.201-0.267-0.454-0.244-0.762c0.112-1.076,0.527-2.153,1.245-3.23
					c0.718-1.077,1.642-2.029,2.776-2.857c1.132-0.827,2.436-1.48,3.914-1.956C283.241,88.647,284.797,88.472,286.432,88.596z"/>
			</g>
		</g>
	</g>
</g>
<g id="Character">
	<g id="Character_18_">
		<g id="XMLID_968_">
			<g id="XMLID_1161_">
				<g id="XMLID_1176_">
					<path style="fill:#BA68C8;" d="M292.008,295.624L292.008,295.624c1.162,6.933-2.103,13.859-8.192,17.374l-95.87,49.978
						l-0.277,5.533l-4.367,2.522l5.625,3.235l105.98-61.347L292.008,295.624z"/>
				</g>
			</g>
			<g id="XMLID_1160_">
				<path style="fill:#BA68C8;" d="M193.786,162.646l-24.496,14.143l104.479,66.065c6.686,4.228,11.255,11.104,12.563,18.906
					l15.217,98.522c0.196,1.172,1.502,1.788,2.531,1.194l0,0c0.571-0.33,0.901-0.959,0.701-3.354l-8.7-104.692
					c-0.492-5.914-4.264-12.961-10.277-17.734L193.786,162.646z"/>
				<path style="opacity:0.1;" d="M193.786,162.646l-24.496,14.143l104.479,66.065c6.686,4.228,11.255,11.104,12.563,18.906
					l15.217,98.522c0.196,1.172,1.502,1.788,2.531,1.194l0,0c0.571-0.33,0.901-0.959,0.701-3.354l-8.7-104.692
					c-0.492-5.914-4.264-12.961-10.277-17.734L193.786,162.646z"/>
			</g>
			<g>
				<path style="fill:#BA68C8;" d="M293.009,301.595c1.138,6.793-2.059,13.578-8.023,17.025l-89.446,51.693l4.774,9.864
					l86.401-49.883c4.901-2.83,11.121,0.102,12.057,5.684L293.009,301.595z"/>
				<path style="opacity:0.1;" d="M293.009,301.595c1.138,6.793-2.059,13.578-8.023,17.025l-89.446,51.693l4.774,9.864
					l86.401-49.883c4.901-2.83,11.121,0.102,12.057,5.684L293.009,301.595z"/>
			</g>
			<g>
				<path style="fill:#BA68C8;" d="M181.771,370.33l-1.207-7.202l-90.347-52.161l10.951-6.322l-5.476-3.162l-4.104,2.368
					c-6.832,3.943-14.74-3.106-11.606-10.345l0.379-0.875l-0.599,1.384c0,0,0,0,0,0.001l-8.161,18.848l7.112,4.745l6.012-3.471
					L181.771,370.33z"/>
			</g>
			<g id="XMLID_1014_">
				<path style="fill:#455A64;" d="M182.94,364.498L90.577,311.13c-3.223-1.862-5.836-6.389-5.836-10.112v-5.441
					c0-3.723,2.613-8.249,5.837-10.11l92.362-53.325c3.223-1.861,8.45-1.861,11.674,0l92.362,53.325
					c3.223,1.861,5.837,6.387,5.837,10.11v5.515c0,3.722-2.614,8.248-5.838,10.109l-92.362,53.301
					C191.39,366.362,186.164,366.36,182.94,364.498z"/>
				<path style="fill:#263238;" d="M184.646,365.235c-0.599-0.203-1.188-0.437-1.706-0.741l-92.363-53.368
					c-3.22-1.859-5.83-6.389-5.83-10.107v-5.444c0-3.282,2.046-7.181,4.736-9.332c-2.072,1.852-1.706,4.342,1.094,5.959
					l91.926,53.074L184.646,365.235z"/>
				<path style="fill:#37474F;" d="M292.814,295.574v5.516c0,3.728-2.611,8.248-5.841,10.107l-92.363,53.307
					c-2.702,1.554-6.806,1.798-9.965,0.721l-2.143-19.949l0.437,0.254c3.22,1.869,8.451,1.869,11.671,0l92.363-53.328
					c2.814-1.615,3.179-4.114,1.097-5.962C290.773,288.393,292.814,292.293,292.814,295.574z"/>
			</g>
			<g id="XMLID_970_">
				<path style="fill:#455A64;" d="M215.799,251.104l-92.373,53.327c-1.859,1.087-4.398,1.534-6.836,1.351
					c-0.345-0.02-0.691-0.061-1.026-0.112c-0.071-0.01-0.142-0.02-0.214-0.031c-0.213-0.041-0.406-0.071-0.609-0.112
					c-0.02,0-0.051-0.01-0.081-0.02c-0.305-0.061-0.61-0.142-0.914-0.234c-0.711-0.213-1.392-0.498-1.991-0.843l-4.754-2.743
					c-3.22-1.859-6.369-6.338-7.019-10.005l-14.048-78.406c-0.081-0.478-0.122-0.955-0.122-1.453c0-0.193,0.01-0.386,0.02-0.579
					c0.071-0.965,0.294-1.94,0.64-2.865c0.65-1.727,1.727-3.311,3.088-4.408c0.132-0.102,0.264-0.203,0.396-0.305
					c0.203-0.142,0.407-0.274,0.62-0.396l92.363-53.327c3.23-1.859,8.451-1.859,11.671,0l4.754,2.742
					c0.965,0.559,1.92,1.351,2.803,2.286c0.163,0.163,0.325,0.345,0.467,0.518c0.63,0.711,1.209,1.493,1.706,2.296
					c0.122,0.173,0.223,0.345,0.325,0.528c0.091,0.152,0.183,0.315,0.264,0.467c0.132,0.234,0.244,0.457,0.355,0.691
					c0.112,0.223,0.223,0.457,0.315,0.691c0.081,0.193,0.163,0.386,0.234,0.579c0.041,0.092,0.071,0.183,0.102,0.274
					c0.061,0.173,0.112,0.345,0.162,0.518c0.071,0.223,0.132,0.447,0.183,0.67c0.051,0.162,0.081,0.325,0.112,0.488l14.048,78.417
					C221.102,244.766,219.019,249.246,215.799,251.104z"/>
				<path style="fill:#37474F;" d="M102.358,222.762l14.047,78.409c0.657,3.664,3.802,5.126,7.026,3.265l92.364-53.326
					c3.224-1.861,5.305-6.34,4.648-10.004l-14.049-78.409c-0.657-3.664-3.802-5.125-7.026-3.264l-92.362,53.325
					C103.783,214.618,101.702,219.098,102.358,222.762z"/>
				<path style="fill:#263238;" d="M121.049,305.377c-1.402,0.376-2.956,0.508-4.459,0.406c-0.345-0.02-0.691-0.061-1.026-0.112
					c-0.274-0.041-0.549-0.081-0.823-0.142c-0.02,0-0.051-0.01-0.081-0.02c-0.305-0.061-0.61-0.142-0.914-0.234
					c-0.711-0.213-1.392-0.498-1.991-0.843l-4.754-2.743c-3.22-1.859-6.369-6.338-7.019-10.005l-14.048-78.406
					c-0.081-0.478-0.122-0.955-0.122-1.453c0-0.193,0.01-0.386,0.02-0.579c0.071-0.965,0.294-1.94,0.64-2.865l16.476,9.365
					c-0.64,1.635-0.884,3.403-0.589,5.018l14.048,78.406c0.487,2.732,2.357,4.246,4.622,4.063
					C121.029,305.285,121.039,305.326,121.049,305.377z"/>
			</g>
		</g>
		<g id="Character_7_">
			<g id="Bottom_10_">
				<g>
					<path id="XMLID_3036_" style="fill:#F28F8F;" d="M263.639,353.852c0,0-10.585,22.738-11.509,31.865
						c-0.964,9.509-3.421,12.557-2.306,23.005c0.243,2.275,1.21,6.861,1.417,8.709c0.185,1.645-0.492,2.929-2.613,3.263
						c-4.179,0.658-10.674-7.447-13.535-16.061c-2.861-8.615-6.573-27.915-6.751-30.213c-0.172-2.216,0.694-4.921,1.632-6.611
						c1.647-2.967,2.068-3.363,2.068-3.363c1.57-4.085,2.608-11.943,4.026-17.346L263.639,353.852z"/>
					<g>
						<path style="fill:#263238;" d="M219.831,382.718c0,0-1.137,1.854-1.259,3.071c-0.191,1.898,3.801,8.37,5.376,10.734
							c1.574,2.364,3.085,5.301,2.578,10.988c-0.541,6.077,1.864,12.067,5.552,17.278c3.689,5.211,10.245,11.039,20.139,14.615
							c9.894,3.577,13.678-1.285,13.678-1.285s3.349-4.696,1.573-6.772C265.691,429.271,219.831,382.718,219.831,382.718z"/>
						<path id="XMLID_3027_" style="fill:#37474F;" d="M232.043,364.444c-0.305-0.026-0.84-0.139-1.673,0.772
							c-0.315,0.345-2.366,4.772-4.001,7.071c-1.75,2.459-5.84,6.606-6.538,10.432c1.965,7.558,8.699,13.077,9.408,20.157
							c0.709,7.08,0.433,15.245,10.82,24.37c10.388,9.125,21.451,10.55,25.554,8.466c4.102-2.084,3.944-6.379-1.227-14.794
							c-5.488-8.932-8.562-27.857-8.563-27.865c-0.585-3.304,0.325-8.77-2.826-10.94c-1.494-1.028-3.352-1.337-5.143-1.62
							c-2.045-0.322-4.295-0.607-6.054,0.485c-1.533,0.952-2.325,2.748-2.739,4.504c-0.414,1.756-0.544,3.587-1.184,5.274
							c-0.205,0.541-0.558,1.135-1.135,1.19c-0.862,0.083-1.274-1.021-1.396-1.879c-0.647-4.541-1.294-9.082-1.941-13.623
							c-0.315-2.215-0.631-4.43-0.947-6.645C232.216,368.094,231.542,366.106,232.043,364.444z"/>
					</g>
				</g>
				<g id="XMLID_2995_">
					<path id="XMLID_3011_" style="fill:#FFA8A7;" d="M277.38,385.678c0,0,6.41,26.679,12.136,36.799
						c5.727,10.12,8.647,14.995,16.071,22.43c1.616,1.619,5.247,4.583,6.568,5.892c1.176,1.165,1.455,2.589,0.013,4.18
						c-2.841,3.135-15.719,4.751-23.352-0.161c-7.633-4.912-15.059-16.009-19.692-20.07c-1.741-1.527-3.39-3.096-4.97-4.774
						c-1.524-1.617-1.257-3.278-1.519-5.194c-0.127-0.926-0.174-3.476-0.174-3.476c-1.316-4.476-4.509-11.418-6.25-15.746
						L277.38,385.678z"/>
					<g>
						<path style="fill:#263238;" d="M261.367,441.886c0,0,0.024,2.174,0.568,3.27c0.848,1.708,7.67,5.066,10.261,6.23
							c2.59,1.164,5.431,2.849,8.027,7.934c2.774,5.434,7.996,9.227,13.892,11.678c5.895,2.451,14.546,3.899,24.826,1.666
							c10.28-2.233,10.9-8.363,10.9-8.363s0.338-5.758-2.27-6.571C324.961,456.917,261.367,441.886,261.367,441.886z"/>
						<path id="XMLID_3010_" style="fill:#37474F;" d="M261.989,419.917c-0.272,0.14-0.785,0.329-1.006,1.543
							c-0.084,0.46,0.535,5.299,0.372,8.115c-0.173,3.013-1.432,8.7,0.012,12.311c5.684,5.355,14.321,6.447,18.687,12.065
							c4.366,5.618,8.475,12.68,22.124,14.882c13.649,2.202,23.776-2.475,26.142-6.422c2.365-3.946-0.053-7.499-8.907-11.875
							c-9.398-4.644-22.066-19.036-22.072-19.042c-1.753-1.991-3.345-4.239-4.822-6.439c-0.913-1.36-0.895-2.736-2.957-2.864
							c-0.997-0.062-1.976,0.248-2.918,0.578c-1.888,0.659-3.743,1.411-5.557,2.252c-0.894,0.415-1.85,0.925-2.226,1.836
							c-0.387,0.94-0.036,2.004,0.316,2.958c1.232,3.342,2.465,6.684,3.697,10.025c-4.158-1.998-6.873-6.032-9.653-9.713
							c-1.594-2.11-3.33-4.186-5.46-5.779c-0.995-0.744-2.069-1.391-3.231-1.839c-0.421-0.162-1.537-0.256-1.829-0.562
							c-0.145-0.152-0.235-0.83-0.351-0.877C262.301,421.051,261.989,419.917,261.989,419.917z"/>
					</g>
				</g>
				<g>
					<path style="fill:#BA68C8;" d="M209.971,249.112c11.649,7.321,51.794,26.816,68.485,40.186
						c4.822,3.862,7.153,9.937,4.904,21.562c-3.118,16.112-14.982,50.591-14.982,50.591c-1.539,3.263-2.915,9.486-2.915,9.486
						l-61.438-63.062L209.971,249.112z"/>
					<path style="opacity:0.4;fill:#FFFFFF;" d="M209.971,249.112c11.649,7.321,51.794,26.816,68.485,40.186
						c4.822,3.862,7.153,9.937,4.904,21.562c-3.118,16.112-14.982,50.591-14.982,50.591c-1.539,3.263-2.915,9.486-2.915,9.486
						l-61.438-63.062L209.971,249.112z"/>
					<path style="opacity:0.3;" d="M263.639,323.517c-1.669-6.287-5.883-9.672-9.623-12.22c-14.911-10.16-35.962-24.9-39.781-27.754
						c1.637-4.011,4.342-11.057,1.374-17.908c0,0-1.123,14.993-9.381,21.188l-0.089,0.145c2.098,2.835,43.632,58.862,61.622,75.957
						c0.2-0.53,0.406-1.031,0.615-1.475c0,0,0.781-2.271,1.991-5.906C268.782,346.215,266.149,332.971,263.639,323.517z"/>
				</g>
				<g id="XMLID_2994_">
					<path style="fill:#BA68C8;" d="M210.684,247.374L210.684,247.374l-81.807,18.975c2.356,13.307,3.516,18.967,8.068,26.282
						c4.568,7.338,12.292,15.001,38.732,27.395c19.924,9.339,44.601,19.544,49.577,21.488c3.75,1.466,4.674,8.695,7.223,17.917
						c2.851,10.314,7.658,17.542,12.001,26.046c6.342,12.42,11.092,22.657,11.092,22.657s17.352,0.075,26.542-9.256
						c-17.39-63.584-18.687-68.152-19.163-69.715c-2.094-6.872-2.165-8.739-11.388-15.794c-7.907-6.049-42.918-28.81-42.918-28.81
						S220.564,265.896,210.684,247.374z"/>
					<path style="opacity:0.4;fill:#FFFFFF;" d="M210.684,247.374L210.684,247.374l-81.807,18.975
						c2.356,13.307,3.516,18.967,8.068,26.282c4.568,7.338,12.292,15.001,38.732,27.395c19.924,9.339,44.601,19.544,49.577,21.488
						c3.75,1.466,4.674,8.695,7.223,17.917c2.851,10.314,7.658,17.542,12.001,26.046c6.342,12.42,11.092,22.657,11.092,22.657
						s17.352,0.075,26.542-9.256c-17.39-63.584-18.687-68.152-19.163-69.715c-2.094-6.872-2.165-8.739-11.388-15.794
						c-7.907-6.049-42.918-28.81-42.918-28.81S220.564,265.896,210.684,247.374z"/>
				</g>
			</g>
			<g id="Top_17_">
				<g id="XMLID_2993_">
					<path style="fill:#FFA8A7;" d="M193.667,162.243c14.974,0.105,21.94,9.314,26.436,22.515
						c4.496,13.2,6.849,19.835,10.415,30.148c3.779,10.929-16.493,24.303-21.934,21.232l-11.187-28.829
						C196.381,197.502,193.667,162.243,193.667,162.243z"/>
					<path style="fill:#263238;" d="M192.921,158.581c8.269,0.402,14.762,3.118,17.775,5.896c3.013,2.778,5.152,3.618,11.775,23.673
						c4.779,14.47,5.586,17.786,5.586,17.786s-10.188,12.873-29.838,11.323l-3.383-7.962L192.921,158.581z"/>
					<path style="fill:#BA68C8;" d="M164.363,156.589l-19.357,6.057c0,0-16.329,11.908-17.96,25.218
						c-1.631,13.309-2.197,20.372-0.361,52.951c1.007,17.88,6.812,43.701,6.812,43.701s18.731,5.512,48.888-5.336
						c35.18-12.654,35.18-26.1,35.18-26.1c-4.12-3.407-7.23-9.209-7.688-14.992c-0.459-5.783-0.567-13.893,0.13-32.103
						c1.003-26.212-0.53-41.865-15.205-46.341C194.802,159.643,173.853,155.239,164.363,156.589z"/>
					<path style="opacity:0.3;" d="M164.363,156.589l-19.357,6.057c0,0-16.329,11.908-17.96,25.218
						c-1.631,13.309-2.197,20.372-0.361,52.951c1.007,17.88,6.812,43.701,6.812,43.701s18.731,5.512,48.888-5.336
						c35.18-12.654,35.18-26.1,35.18-26.1c-4.12-3.407-7.23-9.209-7.688-14.992c-0.459-5.783-0.567-13.893,0.13-32.103
						c1.003-26.212-0.53-41.865-15.205-46.341C194.802,159.643,173.853,155.239,164.363,156.589z"/>
				</g>
				<g>
					<g id="XMLID_2978_">
						<g id="XMLID_2991_">
							<g>
								<path style="fill:#263238;" d="M191.581,86.358c-19.841-4.069-36.563,9.043-40.038,21.125
									c-5.378,18.697,12.392,33.133,15.208,43.579l48.331-37.872C215.822,105.527,211.423,90.427,191.581,86.358z"/>
								<g>
									<path style="fill:#FFA8A7;" d="M178.559,112.666c-6.32-1.363-7.82,1.507-8.184,5.589c-0.364,4.083-0.075,5.598-0.968,9.828
										c-0.192,0.907-0.458,1.818-0.985,2.58c-0.527,0.763-1.353,1.364-2.277,1.428c-1.244,0.086-1.754-0.674-2.133-1.651
										c-0.489-1.261-0.556-3.406-2.678-5.215c-2.122-1.809-7.784-3.741-10.411,2.213c-2.72,6.168,2.433,13.734,6.712,15.656
										c5.705,2.563,8.942-3.157,8.942-3.157l-4.49,22.437c9.788,15.49,32.28,11.627,27.819,5.358l4.193-10.183
										c0,0,5.132,0.693,8.477-0.154c3.78-0.737,10.268-2.637,12.332-15.684c0.771-4.876,0.893-18.349,0.385-25.847
										c-0.432-6.363-1.59-8.562-1.861-9.427c-2.631-2.204-11.009-2.129-15.019,1.722
										C192.154,104.009,183.307,104.336,178.559,112.666z"/>
								</g>
								<path style="fill:#B16668;" d="M199.016,144.458c-0.772-0.918-2.052-1.497-3.206-1.75c-0.554-0.121-1.123-0.188-1.691-0.173
									c-0.509,0.013-1.307,0.099-1.718,0.435c-0.166,0.136-0.218,0.342-0.185,0.551c0.025,0.161,0.146,0.458,0.345,0.468
									c0.296,0.015,0.569-0.044,0.862-0.073c0.304-0.03,0.612-0.025,0.917-0.027c0.503-0.003,1.004,0.048,1.493,0.168
									c0.482,0.118,0.957,0.284,1.396,0.517c0.483,0.256,0.898,0.593,1.343,0.905c0.226,0.158,0.499,0.106,0.612-0.153
									C199.308,145.041,199.211,144.69,199.016,144.458z"/>
							</g>
							<path id="XMLID_2992_" style="fill:#F28F8F;" d="M194.098,157.548c-6.897-0.569-10.596-1.716-13.585-2.939
								c-5.489-2.246-7.787-2.833-12.561-14.591c0,0,0.522,10.425,7.039,15.746c5.122,4.182,17.707,5.185,17.707,5.185
								L194.098,157.548z"/>
						</g>
						<g>
							<path style="fill:#37474F;" d="M213.243,110.16c-2.555-7.116-10.334-12.507-14.832-2.001
								c-6.236-8.903-17.022-7.656-19.328,3.646c-1.651,8.094-0.612,14.725,0.719,19.147c0,0-6.986-3.41-7.275-13.167
								c0,0-1.079,7.08-0.231,9.884c0,0-17.24-1.638-22.173-6.878c0,0-4.193-19.497,8.942-24.468
								c0.992-8.375,13.721-19.001,35.488-13.657c21.767,5.344,24.959,16.884,24.959,16.884s-3.866-2.638-6.795-3.385
								c0,0,6.295,5.35,7.016,15.09c0.716,9.673-4.136,14.651-4.136,14.651S215.292,115.864,213.243,110.16z"/>
							<g>
								<path id="XMLID_2990_" style="fill:#37474F;" d="M158.645,97.731l-6.876-5.152c1.514-1.898,4.281-2.285,6.18-0.863
									C159.848,93.139,160.16,95.832,158.645,97.731z"/>
								<path id="XMLID_2989_" style="fill:#37474F;" d="M159.595,97.218l-8.052,2.997c-0.778-2.3,0.394-4.837,2.617-5.664
									C156.383,93.723,158.817,94.918,159.595,97.218z"/>
							</g>
							<g>
								<path style="fill:#263238;" d="M195.044,101.321c0.075,0,0.15-0.024,0.212-0.074c0.145-0.116,0.168-0.327,0.052-0.472
									c-7.391-9.242-27.109-10.122-34.81-5.418c-0.159,0.096-0.209,0.303-0.112,0.461c0.099,0.159,0.307,0.209,0.461,0.112
									c7.335-4.481,26.87-3.57,33.937,5.265C194.849,101.277,194.946,101.321,195.044,101.321z"/>
							</g>
						</g>
						<g>
							<g id="XMLID_2987_">
								<path id="XMLID_2988_" style="fill:#263238;" d="M192.295,126.988c0.079,1.514-1.039,2.798-2.495,2.87
									c-1.457,0.071-2.702-1.097-2.78-2.611c-0.078-1.513,1.039-2.798,2.496-2.87
									C190.972,124.306,192.217,125.474,192.295,126.988z"/>
							</g>
							<g id="XMLID_2985_">
								<path id="XMLID_2986_" style="fill:#263238;" d="M211.377,125.568c0.077,1.47-1.008,2.718-2.424,2.786
									c-1.555,0.077-2.615-0.919-2.699-2.535c-0.076-1.47,1.009-2.717,2.423-2.787
									C210.092,122.963,211.301,124.098,211.377,125.568z"/>
							</g>
							<g id="XMLID_2982_">
								<polygon id="XMLID_2984_" style="fill:#F28F8F;" points="198.34,121.432 199.514,139.378 208.843,135.443 								"/>
							</g>
							<path id="XMLID_2980_" style="fill:#263238;" d="M183.315,120.177l5.157-4.746c1.297,1.497,1.195,3.774-0.229,5.085
								C186.818,121.827,184.612,121.675,183.315,120.177z"/>
							<path id="XMLID_2979_" style="fill:#263238;" d="M207.483,114.446l5.565,4.349c-1.153,1.594-3.333,1.912-4.869,0.711
								C206.642,118.306,206.331,116.04,207.483,114.446z"/>
						</g>
					</g>
					<g>
						<path style="fill:#F28F8F;" d="M163.037,138.614c2.39-0.568,4.235,1.605,4.235,1.605s1.867-1.212,3.049-0.029
							c1.182,1.183,1.468,2.759,1.468,2.759s1.943-1.365,3.264,0.19c1.313,1.546,1.738,3.342,1.738,3.342s1.728-0.665,3.218,1.601
							c1.067,1.623,3.069,4.166,5.624,5.241c2.289,0.962,1.173,2.408-1.337,3.069c-2.51,0.661-22.252-16.676-22.252-16.676
							L163.037,138.614z"/>
					</g>
				</g>
				<g>
					<path style="fill:#263238;" d="M141.315,229.468c0.92,0.905,19.945-8.84,21.324-20.79
						C157.588,207.486,140.395,219.326,141.315,229.468z"/>
					<path style="fill:#FFA8A7;" d="M144.818,163.84c-14.768,5.471-18.378,17.374-16.957,29.613
						c1.056,9.093,6.68,18.712,18.233,37.584c11.523,18.824,21.119,12.69,21.119,12.69l3.158-14.029l-16.615-41.279
						C153.755,188.418,152.86,170.329,144.818,163.84z"/>
					<path style="fill:#F28F8F;" d="M160.996,206.407l-2.424-6.115c0,0-8.799,16.561-4.649,27.343L160.996,206.407z"/>
					<path style="fill:#263238;" d="M145.007,162.646c-12.041,4.243-16.363,9.166-18.215,19.705
						c-1.253,7.131-0.299,12.253,2.876,22.11c3.296,10.235,11.87,25.007,11.87,25.007c0.122-5.938,11.496-19.396,21.324-20.79
						c0,0-5.654-17.126-7.34-21.793C153.837,182.217,150.163,168.19,145.007,162.646z"/>
					<path style="fill:#FFA8A7;" d="M183.449,174.216c1.647-4.574,2.979-8.52,2.43-10.984c-0.747-3.354-2.375-3.938-2.375-3.938
						c0.557-0.138,1.332-0.309,1.789-0.658c0.716-0.547,0.916-1.04,0.961-1.612c0.069-0.886-1.787-1.435-2.523-1.933
						c-2.442-1.655-3.262-2.829-5.04-5.082c-0.26-0.329-1.07-1.339-2.117-1.368c-0.543-1.647-1.122-3.152-2.24-3.699
						c-0.691-0.338-1.448-0.461-2.495-0.135c0,0-0.632-2.081-2.06-2.725c-1.255-0.566-2.568,0.011-2.568,0.011
						s-1.064-1.464-1.875-2.086c-1.266-0.972-3.16-0.743-4.471,0.165c-1.722,1.192-2.338,3.027-3.147,4.827
						c-0.728,1.618-1.264,3.32-1.707,5.036c-0.412,1.595-0.751,3.216-0.97,4.85c-0.081,0.602-0.227,2.251,0.105,2.83
						c0.746,2.031,11.492,13.237,11.492,13.237c-0.926,6.584-8.346,35.092-11.537,44.844c-3.045,9.305-0.2,24.529,4.21,26.987
						c4.41,2.458,10.186,2.899,17.461-7.832C184.86,223.018,179.372,185.54,183.449,174.216z"/>
					<path style="fill:#F28F8F;" d="M167.213,243.727c2.788-0.97,5.902-3.468,9.356-8.484c-1.59-0.35-3.211-0.61-4.787-0.805
						c-2.706-0.335-5.033-1.538-7.616-2.319c-0.139-0.042-0.298-0.08-0.423-0.007c-0.107,0.063-0.157,0.189-0.194,0.308
						c-0.392,1.255-0.176,2.685,0.57,3.767c0.598,0.867,1.459,1.493,2.315,2.083c0.272,0.188,0.759,0.394,1.771,0.982
						c0.436,0.253,0.778,0.563,0.699,0.939c-0.242,1.151-4.076,1.14-4.785,1.141c-2.338,0.003-4.656-0.477-6.879-1.178
						c-0.537-0.169-1.074-0.354-1.554-0.647c-0.477-0.292-0.883-0.683-1.271-1.086c-0.515-0.535-1.003-1.096-1.463-1.68
						c-1.161-1.476-2.153-3.116-3.59-4.325c-0.93-0.782-2.121-1.348-3.311-1.449c0.014,0.024,0.027,0.045,0.042,0.069
						C157.617,249.86,167.213,243.727,167.213,243.727z"/>
					<g>
						<path style="fill:#B16668;" d="M183.716,159.053c-1.085,0.247-2.257,0.097-3.103-0.057c-2.698-0.492-3.573-2.08-3.573-2.08
							s-0.156-4.296-0.611-3.946c-0.455,0.35-0.334,3.694-0.334,3.694s-0.908-0.444-1.72-1.389
							c-0.903,0.569,0.321,1.564,1.594,2.361c0.557,0.349,1.32,0.993,2.33,1.429c1.168,0.504,2.481,0.676,4.083,0.773
							c1.126,0.068,1.64,0.14,2.357,0.884C184.286,160.089,183.716,159.053,183.716,159.053z"/>
						<path style="fill:#B16668;" d="M177.349,148.766c-0.16,0.007-0.318,0.164-0.471,0.139c-1.396-0.231-2.904,0.231-4.923,1.522
							c-2.22,1.42-4.45,4.634-4.45,4.634s0.336-2.027,3.017-4.405C173.204,148.277,175.864,147.817,177.349,148.766z"/>
						<path style="fill:#B16668;" d="M171.971,144.522l-0.064,0.499c-4.841,1.618-7.275,4.919-9.044,7.436
							c0,0,0.143-2.216,3.687-5.263C169.198,144.917,171.971,144.522,171.971,144.522z"/>
						<path style="fill:#B16668;" d="M166.591,141.225c-0.87,0.228-2.081,1.316-3.529,2.938c-1.793,2.01-3.162,4.455-3.56,5.733
							c0.941-1.519,4.19-6.41,8.105-7.727C167.607,142.168,167.043,142.029,166.591,141.225z"/>
						<path style="fill:#B16668;" d="M162.998,166.889c3.457,3.189,7.496,4.324,9.844,4.518c0,0-2.715,0.559-6.205-0.454
							L162.998,166.889z"/>
						<g>
							<path style="fill:#B16668;" d="M181.423,212.164c0.169-4.514,0.208-9.031,0.215-13.548c0.006-4.516-0.021-9.035,0.154-13.553
								c0.099-2.258,0.24-4.519,0.567-6.763c0.17-1.12,0.374-2.24,0.708-3.33c0.31-1.103,0.743-2.136,1.091-3.212
								c0.712-2.132,1.431-4.294,1.648-6.516c0.119-1.112-0.068-2.206-0.465-3.251c-0.372-1.012-0.984-2.068-1.895-2.531
								l-0.019-0.009c-0.087-0.044-0.121-0.15-0.077-0.237c0.024-0.046,0.066-0.078,0.113-0.091
								c0.679-0.177,1.385-0.312,1.872-0.752c0.257-0.216,0.476-0.468,0.599-0.76c0.11-0.284,0.2-0.659,0.071-0.866
								c-0.316-0.5-1.036-0.787-1.646-1.099c-0.662-0.295-1.244-0.753-1.808-1.173c-1.146-0.861-2.123-1.938-2.999-3.05
								c-0.444-0.545-0.875-1.132-1.32-1.642c-0.455-0.492-1.035-0.912-1.662-0.931c-0.09-0.003-0.165-0.063-0.193-0.143
								c-0.373-1.088-0.74-2.223-1.465-3.053c-0.356-0.406-0.855-0.65-1.388-0.764c-0.528-0.109-1.084-0.037-1.616,0.13
								c-0.115,0.036-0.236-0.026-0.276-0.139l-0.003-0.009c-0.315-0.911-0.82-1.848-1.594-2.393
								c-0.769-0.543-1.86-0.53-2.737-0.193c-0.092,0.037-0.197,0.005-0.256-0.069c-0.66-0.846-1.34-1.795-2.229-2.299
								c-0.922-0.479-2.076-0.417-3.046-0.013c-0.978,0.408-1.787,1.183-2.369,2.085c-0.593,0.906-0.996,1.936-1.451,2.949
								c-0.917,2.001-1.537,4.125-2.047,6.27c-0.252,1.074-0.467,2.155-0.63,3.245c-0.086,0.546-0.146,1.085-0.164,1.632
								c-0.01,0.531-0.02,1.123,0.178,1.548l0.01,0.022l0.002,0.003c0.274,0.617,0.757,1.206,1.189,1.779
								c0.448,0.574,0.914,1.137,1.385,1.695c0.944,1.114,1.914,2.209,2.892,3.296c1.958,2.172,3.952,4.314,5.967,6.434
								c0.028,0.028,0.039,0.068,0.034,0.105c-0.322,2.124-0.805,4.209-1.282,6.294c-0.489,2.083-1.01,4.157-1.533,6.23
								l-3.203,12.424l3.054-12.46l1.463-6.244c0.468-2.084,0.943-4.172,1.253-6.279l0.034,0.104
								c-2.026-2.115-4.028-4.25-5.997-6.417c-0.983-1.085-1.958-2.177-2.91-3.292c-0.475-0.558-0.945-1.121-1.399-1.699
								c-0.444-0.592-0.917-1.138-1.244-1.861l0.011,0.024c-0.27-0.591-0.224-1.154-0.227-1.717c0.016-0.559,0.077-1.123,0.161-1.67
								c0.16-1.1,0.373-2.192,0.623-3.275c0.504-2.16,1.123-4.311,2.044-6.343c0.447-1.005,0.85-2.053,1.468-3.007
								c0.61-0.952,1.465-1.788,2.537-2.241c1.054-0.442,2.32-0.529,3.388,0.015c0.536,0.276,0.941,0.701,1.318,1.11
								c0.378,0.418,0.727,0.851,1.063,1.303l-0.255-0.069c0.52-0.205,1.048-0.293,1.596-0.275c0.543,0.02,1.096,0.178,1.555,0.496
								c0.461,0.312,0.807,0.738,1.094,1.184c0.284,0.453,0.509,0.923,0.68,1.438l-0.279-0.148c0.577-0.18,1.216-0.265,1.835-0.135
								c0.604,0.126,1.202,0.425,1.62,0.903c0.817,0.951,1.165,2.112,1.543,3.212l-0.192-0.143c0.816,0.036,1.462,0.543,1.952,1.071
								c0.483,0.558,0.885,1.116,1.332,1.669c0.869,1.11,1.805,2.149,2.922,2.996c0.566,0.424,1.103,0.854,1.738,1.138
								c0.316,0.156,0.639,0.311,0.953,0.497c0.308,0.192,0.638,0.39,0.853,0.768c0.305,0.864-0.208,1.606-0.762,2.074
								c-0.59,0.517-1.35,0.643-2.021,0.819l0.017-0.337c1.132,0.587,1.687,1.685,2.095,2.746c0.191,0.545,0.354,1.088,0.442,1.667
								c0.081,0.577,0.081,1.157,0.03,1.728c-0.233,2.285-0.966,4.447-1.689,6.586c-0.351,1.072-0.796,2.126-1.1,3.198
								c-0.332,1.068-0.539,2.178-0.711,3.288c-0.333,2.226-0.483,4.479-0.59,6.732c-0.182,4.509-0.186,9.027-0.253,13.544
								C181.73,203.134,181.641,207.652,181.423,212.164z"/>
						</g>
					</g>
				</g>
				<g>
					<g>
						<path style="fill:#FFA8A7;" d="M195.766,256.267c-3.107,1.169-7.068,3.721-11.228,4.852c-4.16,1.131-8.268,1.46-13.376,1.382
							c-2.364-0.036-4.729-0.19-7.073-0.504c-2.459-0.33-4.538-1.614-6.761-2.699c-2.192-1.071-4.577-2.349-5.41-4.642
							c-0.436-1.202-0.391-2.58-1.061-3.669c-0.409-0.665-1.049-1.156-1.507-1.789c-0.756-1.045-0.939-2.352-1.121-3.595
							c-0.202-1.383-0.59-2.652-1.049-3.972c-0.994-2.861-2.174-5.658-3.531-8.366c-0.049-0.098-0.1-0.209-0.068-0.315
							c0.034-0.113,0.15-0.178,0.257-0.226c1.716-0.763,3.779-0.052,5.216,1.158c1.437,1.209,2.429,2.849,3.59,4.326
							c0.459,0.584,0.948,1.145,1.463,1.68c0.387,0.403,0.794,0.794,1.271,1.086c0.48,0.294,1.018,0.478,1.554,0.647
							c2.223,0.701,4.54,1.18,6.879,1.178c0.709-0.001,4.543,0.01,4.785-1.141c0.079-0.377-0.262-0.686-0.699-0.939
							c-1.013-0.589-1.499-0.795-1.771-0.982c-0.856-0.59-1.718-1.216-2.315-2.083c-0.746-1.083-0.963-2.513-0.57-3.768
							c0.037-0.118,0.087-0.245,0.194-0.308c0.125-0.074,0.284-0.035,0.423,0.007c2.582,0.781,4.91,1.984,7.616,2.319
							c2.602,0.322,5.339,0.785,7.83,1.622c1.603,0.539,3.696,1.497,5.35,1.845c1.671,0.352,3.458,0.482,6.269-1.071
							c4.414-2.439,14.117-10.221,19.295-13.9l19.598-11.527c0,0,1.355,3.983,2.707,8.788c2.59,9.207,2.291,11-1.82,14.924
							C223.885,243.089,210.8,250.609,195.766,256.267z"/>
					</g>
					<g>
						<path style="fill:#B16668;" d="M143.839,232.724c1.074-0.498,2.342-0.404,3.434,0.02c1.109,0.417,2.064,1.172,2.86,2.037
							c0.798,0.87,1.467,1.838,2.17,2.767c0.342,0.473,0.732,0.904,1.117,1.339c0.39,0.429,0.751,0.891,1.176,1.28
							c0.805,0.845,1.919,1.177,3.044,1.493c1.118,0.32,2.253,0.577,3.401,0.741c1.149,0.168,2.303,0.224,3.465,0.186
							c1.143-0.053,2.352-0.102,3.36-0.521c0.539-0.214,0.718-0.616,0.24-0.952c-0.417-0.31-1.001-0.583-1.492-0.876
							c-0.525-0.271-1.005-0.606-1.473-0.974c-0.468-0.364-0.918-0.77-1.29-1.249c-0.76-0.957-1.09-2.225-0.932-3.427
							c0.044-0.306,0.104-0.586,0.221-0.896c0.047-0.169,0.299-0.354,0.497-0.315c0.193,0.016,0.321,0.077,0.462,0.118
							c0.561,0.178,1.114,0.374,1.663,0.578c1.098,0.407,2.184,0.836,3.296,1.174c1.112,0.355,2.25,0.529,3.417,0.676
							c2.313,0.356,4.62,0.826,6.829,1.602c-2.231-0.707-4.543-1.102-6.858-1.386c-1.154-0.126-2.337-0.298-3.461-0.644
							c-1.129-0.331-2.225-0.75-3.323-1.144c-0.549-0.197-1.1-0.387-1.655-0.556c-0.138-0.041-0.285-0.096-0.385-0.099
							c-0.103,0-0.131,0.021-0.185,0.129c-0.086,0.237-0.153,0.533-0.186,0.805c-0.134,1.117,0.184,2.285,0.893,3.156
							c0.35,0.442,0.78,0.822,1.237,1.17c0.456,0.35,0.939,0.681,1.458,0.94c0.514,0.301,1.008,0.506,1.537,0.886
							c0.126,0.101,0.251,0.221,0.346,0.385c0.093,0.16,0.143,0.396,0.072,0.585c-0.126,0.405-0.464,0.594-0.74,0.718
							c-1.171,0.464-2.36,0.475-3.536,0.524c-1.176,0.026-2.365-0.044-3.529-0.227c-1.166-0.179-2.313-0.452-3.439-0.787
							c-0.561-0.173-1.125-0.335-1.677-0.577c-0.555-0.236-1.055-0.608-1.477-1.022c-0.434-0.407-0.791-0.873-1.182-1.313
							c-0.385-0.444-0.775-0.886-1.114-1.365c-0.695-0.943-1.355-1.907-2.124-2.776c-0.758-0.875-1.662-1.637-2.74-2.082
							C146.173,232.396,144.929,232.261,143.839,232.724z"/>
					</g>
					<path style="fill:#F28F8F;" d="M209.551,224.876c3.477-2.653,10.747-5.312,16.029-3.934c-3.043-3.216-12.207-1.255-16.029,0.82
						V224.876z"/>
				</g>
			</g>
		</g>
		<g id="XMLID_410_">
			<path style="fill:#BA68C8;" d="M179.441,356.093c0.935,5.581-5.096,9.766-9.997,6.937l-86.106-49.714
				c-4.58-2.645-6.839-7.825-5.962-12.838l18.318-43.254l-10.951,0l-29.954,85.841c-0.636,1.836,1.349,3.476,3.032,2.504
				c0.39-0.225,0.697-0.57,0.877-0.983l8.158-19.265c3.017-3.274,8.004-4.254,12.102-1.888l95.726,55.267
				c5.953,3.437,10.235,9.633,11.371,16.413L179.441,356.093z"/>
			<path style="opacity:0.2;fill:#FFFFFF;" d="M179.441,356.093c0.935,5.581-5.096,9.766-9.997,6.937l-86.106-49.714
				c-4.58-2.645-6.839-7.825-5.962-12.838l18.318-43.254l-10.951,0l-29.954,85.841c-0.636,1.836,1.349,3.476,3.032,2.504
				c0.39-0.225,0.697-0.57,0.877-0.983l8.158-19.265c3.017-3.274,8.004-4.254,12.102-1.888l95.726,55.267
				c5.953,3.437,10.235,9.633,11.371,16.413L179.441,356.093z"/>
			<g>
				<path style="fill:#BA68C8;" d="M195.54,370.313c-3.121,1.803-6.402,0.087-6.703-3.504v-0.001c0,0,0,0,0,0l-0.458-4.746
					l0.136,1.405l-4.215-43.672c-0.637-7.651-4.409-14.698-10.422-19.472L89.53,233.363l-1.665-9.277
					c-12.313,9.671-11.776,29.171,2.027,37.9l71.951,45.497c6.686,4.228,11.255,11.104,12.563,18.906l16.517,97.45
					c0.197,1.172,1.502,1.788,2.531,1.194c0.571-0.33,0.901-0.959,0.846-1.616l-2.391-24.771
					c-0.613-7.365,2.004-14.773,8.405-18.468"/>
				<path style="opacity:0.1;" d="M195.54,370.313c-3.121,1.803-6.402,0.087-6.703-3.504v-0.001c0,0,0,0,0,0l-0.458-4.746
					l0.136,1.405l-4.215-43.672c-0.637-7.651-4.409-14.698-10.422-19.472L89.53,233.363l-1.665-9.277
					c-12.313,9.671-11.776,29.171,2.027,37.9l71.951,45.497c6.686,4.228,11.255,11.104,12.563,18.906l16.517,97.45
					c0.197,1.172,1.502,1.788,2.531,1.194c0.571-0.33,0.901-0.959,0.846-1.616l-2.391-24.771
					c-0.613-7.365,2.004-14.773,8.405-18.468"/>
			</g>
		</g>
	</g>
</g>
</svg>
